{
  "version": "1.1.3",
  "modules": [
    {
      "id": 1,
      "plugin": "Core",
      "version": "1.1.3",
      "model": "AudioInterface",
      "params": [],
      "leftModuleId": 39,
      "rightModuleId": 8,
      "data": {
        "audio": {
          "driver": 5,
          "deviceName": "iConnectivity: iConnectAUDIO4+",
          "offset": 0,
          "maxChannels": 8,
          "sampleRate": 44100,
          "blockSize": 512
        }
      },
      "pos": [
        69,
        1
      ]
    },
    {
      "id": 5,
      "plugin": "Core",
      "version": "1.1.3",
      "model": "MIDIToCVInterface",
      "params": [],
      "rightModuleId": 50,
      "data": {
        "channels": 1,
        "polyMode": 0,
        "clockDivision": 24,
        "lastPitch": 8192,
        "lastMod": 6,
        "midi": {
          "driver": 1,
          "deviceName": "ReMOTE SL Port 1",
          "channel": -1
        }
      },
      "pos": [
        0,
        1
      ]
    },
    {
      "id": 8,
      "plugin": "Core",
      "version": "1.1.3",
      "model": "Notes",
      "params": [],
      "leftModuleId": 1,
      "text": "パフィー・シェープス\n",
      "pos": [
        79,
        1
      ]
    },
    {
      "id": 35,
      "plugin": "Geodesics",
      "version": "1.0.0",
      "model": "Ions",
      "params": [
        {
          "id": 0,
          "value": 0.0
        },
        {
          "id": 1,
          "value": 0.0
        },
        {
          "id": 2,
          "value": 0.599000156
        },
        {
          "id": 3,
          "value": 0.402500033
        },
        {
          "id": 4,
          "value": 0.759499967
        },
        {
          "id": 5,
          "value": 0.345500052
        },
        {
          "id": 6,
          "value": 0.567499995
        },
        {
          "id": 7,
          "value": 0.388999939
        },
        {
          "id": 8,
          "value": 0.289999902
        },
        {
          "id": 9,
          "value": 0.63500005
        },
        {
          "id": 10,
          "value": 0.643999934
        },
        {
          "id": 11,
          "value": 0.681499958
        },
        {
          "id": 12,
          "value": 0.324499965
        },
        {
          "id": 13,
          "value": 0.349999905
        },
        {
          "id": 14,
          "value": 0.154999971
        },
        {
          "id": 15,
          "value": 0.711500168
        },
        {
          "id": 16,
          "value": 0.533000052
        },
        {
          "id": 17,
          "value": 0.406499952
        },
        {
          "id": 18,
          "value": 0.0
        },
        {
          "id": 19,
          "value": 0.0
        },
        {
          "id": 20,
          "value": 0.0
        },
        {
          "id": 21,
          "value": 0.0
        },
        {
          "id": 22,
          "value": 0.0
        },
        {
          "id": 23,
          "value": 0.0
        },
        {
          "id": 24,
          "value": 0.0
        },
        {
          "id": 25,
          "value": 0.0
        },
        {
          "id": 26,
          "value": 0.0
        },
        {
          "id": 27,
          "value": 0.0
        }
      ],
      "leftModuleId": 47,
      "rightModuleId": 43,
      "data": {
        "panelTheme": 1,
        "running": true,
        "resetOnRun": false,
        "quantize": 3,
        "uncertainty": false,
        "stepIndexes0": 0,
        "stepIndexes1": 0,
        "states0": 1,
        "states1": 0,
        "ranges0": 1,
        "ranges1": 1,
        "leap": false
      },
      "pos": [
        20,
        0
      ]
    },
    {
      "id": 36,
      "plugin": "Bogaudio",
      "version": "1.1.21",
      "model": "Bogaudio-FMOp",
      "params": [
        {
          "id": 0,
          "value": 0.0
        },
        {
          "id": 1,
          "value": -0.00199987553
        },
        {
          "id": 2,
          "value": 0.141421005
        },
        {
          "id": 3,
          "value": 0.316229999
        },
        {
          "id": 4,
          "value": 0.0
        },
        {
          "id": 5,
          "value": 0.316229999
        },
        {
          "id": 6,
          "value": 0.0
        },
        {
          "id": 7,
          "value": 0.276999921
        },
        {
          "id": 8,
          "value": 1.0
        },
        {
          "id": 9,
          "value": 1.0
        },
        {
          "id": 10,
          "value": 1.0
        },
        {
          "id": 11,
          "value": 0.0
        }
      ],
      "leftModuleId": 46,
      "rightModuleId": 42,
      "data": {
        "linearLevel": false
      },
      "pos": [
        53,
        0
      ]
    },
    {
      "id": 37,
      "plugin": "Bogaudio",
      "version": "1.1.21",
      "model": "Bogaudio-FMOp",
      "params": [
        {
          "id": 0,
          "value": 0.0
        },
        {
          "id": 1,
          "value": 0.0
        },
        {
          "id": 2,
          "value": 0.141421005
        },
        {
          "id": 3,
          "value": 0.316229999
        },
        {
          "id": 4,
          "value": 0.106000006
        },
        {
          "id": 5,
          "value": 0.316229999
        },
        {
          "id": 6,
          "value": 0.0
        },
        {
          "id": 7,
          "value": 0.320499778
        },
        {
          "id": 8,
          "value": 1.0
        },
        {
          "id": 9,
          "value": 1.0
        },
        {
          "id": 10,
          "value": 1.0
        },
        {
          "id": 11,
          "value": 0.0
        }
      ],
      "leftModuleId": 42,
      "rightModuleId": 40,
      "data": {
        "linearLevel": false
      },
      "pos": [
        66,
        0
      ]
    },
    {
      "id": 38,
      "plugin": "Bogaudio",
      "version": "1.1.21",
      "model": "Bogaudio-Mix8",
      "params": [
        {
          "id": 0,
          "value": 0.805591047
        },
        {
          "id": 1,
          "value": 0.0
        },
        {
          "id": 2,
          "value": -1.0
        },
        {
          "id": 3,
          "value": 0.799590707
        },
        {
          "id": 4,
          "value": 0.0
        },
        {
          "id": 5,
          "value": 1.0
        },
        {
          "id": 6,
          "value": 0.811590075
        },
        {
          "id": 7,
          "value": 0.0
        },
        {
          "id": 8,
          "value": 0.0
        },
        {
          "id": 9,
          "value": 0.909090936
        },
        {
          "id": 10,
          "value": 0.0
        },
        {
          "id": 11,
          "value": 0.0
        },
        {
          "id": 12,
          "value": 0.909090936
        },
        {
          "id": 13,
          "value": 0.0
        },
        {
          "id": 14,
          "value": 0.0
        },
        {
          "id": 15,
          "value": 0.909090936
        },
        {
          "id": 16,
          "value": 0.0
        },
        {
          "id": 17,
          "value": 0.0
        },
        {
          "id": 18,
          "value": 0.909090936
        },
        {
          "id": 19,
          "value": 0.0
        },
        {
          "id": 20,
          "value": 0.0
        },
        {
          "id": 21,
          "value": 0.909090936
        },
        {
          "id": 22,
          "value": 0.0
        },
        {
          "id": 23,
          "value": 0.0
        },
        {
          "id": 24,
          "value": 0.909090936
        },
        {
          "id": 25,
          "value": 0.0
        }
      ],
      "leftModuleId": 49,
      "rightModuleId": 39,
      "pos": [
        30,
        1
      ]
    },
    {
      "id": 39,
      "plugin": "Valley",
      "version": "1.0.1",
      "model": "Plateau",
      "params": [
        {
          "id": 0,
          "value": 1.0
        },
        {
          "id": 1,
          "value": 0.328500152
        },
        {
          "id": 2,
          "value": 0.0
        },
        {
          "id": 3,
          "value": 8.36499023
        },
        {
          "id": 4,
          "value": 10.0
        },
        {
          "id": 5,
          "value": 0.5
        },
        {
          "id": 6,
          "value": 10.0
        },
        {
          "id": 7,
          "value": 0.396066934
        },
        {
          "id": 8,
          "value": 10.0
        },
        {
          "id": 9,
          "value": 10.0
        },
        {
          "id": 10,
          "value": 0.0
        },
        {
          "id": 11,
          "value": 0.5
        },
        {
          "id": 12,
          "value": 5.63600159
        },
        {
          "id": 13,
          "value": 0.0
        },
        {
          "id": 14,
          "value": 0.0
        },
        {
          "id": 15,
          "value": 0.0
        },
        {
          "id": 16,
          "value": 0.0
        },
        {
          "id": 17,
          "value": 0.0
        },
        {
          "id": 18,
          "value": 0.0
        },
        {
          "id": 19,
          "value": 0.0
        },
        {
          "id": 20,
          "value": 0.0
        },
        {
          "id": 21,
          "value": 0.0
        },
        {
          "id": 22,
          "value": 0.0
        },
        {
          "id": 23,
          "value": 0.0
        },
        {
          "id": 24,
          "value": 0.0
        },
        {
          "id": 25,
          "value": 0.0
        },
        {
          "id": 26,
          "value": 0.0
        },
        {
          "id": 27,
          "value": 0.0
        },
        {
          "id": 28,
          "value": 0.0
        },
        {
          "id": 29,
          "value": 0.0
        },
        {
          "id": 30,
          "value": 1.0
        }
      ],
      "leftModuleId": 38,
      "rightModuleId": 1,
      "data": {
        "frozen": false,
        "freezeToggle": false,
        "panelStyle": 0,
        "tuned": 0,
        "diffuseInput": 1,
        "preDelayCVSens": 0,
        "inputSensitivity": 0,
        "outputSaturation": 0
      },
      "pos": [
        57,
        1
      ]
    },
    {
      "id": 40,
      "plugin": "VultModules",
      "version": "1.1.0",
      "model": "Basal",
      "params": [
        {
          "id": 0,
          "value": 0.0
        },
        {
          "id": 1,
          "value": -0.0870002434
        },
        {
          "id": 2,
          "value": 0.0
        },
        {
          "id": 3,
          "value": 0.0
        },
        {
          "id": 4,
          "value": 0.381000102
        },
        {
          "id": 5,
          "value": 1.0
        }
      ],
      "leftModuleId": 37,
      "rightModuleId": 41,
      "pos": [
        76,
        0
      ]
    },
    {
      "id": 41,
      "plugin": "VultModules",
      "version": "1.1.0",
      "model": "Slap",
      "params": [
        {
          "id": 0,
          "value": 0.0
        },
        {
          "id": 1,
          "value": 0.5
        },
        {
          "id": 2,
          "value": 0.0
        },
        {
          "id": 3,
          "value": 0.370500118
        },
        {
          "id": 4,
          "value": 0.0
        },
        {
          "id": 5,
          "value": 0.0
        },
        {
          "id": 6,
          "value": 0.0
        },
        {
          "id": 7,
          "value": 0.0
        },
        {
          "id": 8,
          "value": 2.0
        }
      ],
      "leftModuleId": 40,
      "pos": [
        82,
        0
      ]
    },
    {
      "id": 42,
      "plugin": "Bogaudio",
      "version": "1.1.21",
      "model": "Bogaudio-Stack",
      "params": [
        {
          "id": 0,
          "value": 7.0
        },
        {
          "id": 1,
          "value": 0.0
        },
        {
          "id": 2,
          "value": 0.0
        },
        {
          "id": 3,
          "value": 1.0
        }
      ],
      "leftModuleId": 36,
      "rightModuleId": 37,
      "pos": [
        63,
        0
      ]
    },
    {
      "id": 43,
      "plugin": "ML_modules",
      "version": "1.0.2",
      "model": "Quantum",
      "params": [
        {
          "id": 0,
          "value": 0.0
        },
        {
          "id": 1,
          "value": 0.0
        },
        {
          "id": 2,
          "value": 0.0
        },
        {
          "id": 3,
          "value": 0.0
        },
        {
          "id": 4,
          "value": 0.0
        },
        {
          "id": 5,
          "value": 0.0
        },
        {
          "id": 6,
          "value": 0.0
        },
        {
          "id": 7,
          "value": 0.0
        },
        {
          "id": 8,
          "value": 0.0
        },
        {
          "id": 9,
          "value": 0.0
        },
        {
          "id": 10,
          "value": 0.0
        },
        {
          "id": 11,
          "value": 0.0
        }
      ],
      "leftModuleId": 35,
      "rightModuleId": 45,
      "data": {
        "scale": [
          0,
          0,
          0,
          1,
          0,
          1,
          0,
          0,
          0,
          0,
          0,
          0
        ],
        "mode": 1,
        "transpose_select": 1,
        "toggle_mode": 0
      },
      "pos": [
        39,
        0
      ]
    },
    {
      "id": 45,
      "plugin": "Bogaudio",
      "version": "1.1.21",
      "model": "Bogaudio-Mult",
      "params": [],
      "leftModuleId": 43,
      "rightModuleId": 46,
      "pos": [
        47,
        0
      ]
    },
    {
      "id": 46,
      "plugin": "Bogaudio",
      "version": "1.1.21",
      "model": "Bogaudio-Mult",
      "params": [],
      "leftModuleId": 45,
      "rightModuleId": 36,
      "pos": [
        50,
        0
      ]
    },
    {
      "id": 47,
      "plugin": "ImpromptuModular",
      "version": "1.1.0",
      "model": "Clocked",
      "params": [
        {
          "id": 0,
          "value": 240.0
        },
        {
          "id": 1,
          "value": 2.0
        },
        {
          "id": 2,
          "value": 0.0
        },
        {
          "id": 3,
          "value": 0.0
        },
        {
          "id": 4,
          "value": 0.0
        },
        {
          "id": 5,
          "value": 0.0
        },
        {
          "id": 6,
          "value": 0.0
        },
        {
          "id": 7,
          "value": 0.0
        },
        {
          "id": 8,
          "value": 0.5
        },
        {
          "id": 9,
          "value": 0.5
        },
        {
          "id": 10,
          "value": 0.5
        },
        {
          "id": 11,
          "value": 0.5
        },
        {
          "id": 12,
          "value": 0.0
        },
        {
          "id": 13,
          "value": 0.0
        },
        {
          "id": 14,
          "value": 0.0
        },
        {
          "id": 15,
          "value": 0.0
        },
        {
          "id": 16,
          "value": 0.0
        },
        {
          "id": 17,
          "value": 0.0
        },
        {
          "id": 18,
          "value": 0.0
        },
        {
          "id": 19,
          "value": 0.0
        }
      ],
      "rightModuleId": 35,
      "data": {
        "panelTheme": 1,
        "running": true,
        "displayDelayNoteMode": true,
        "bpmDetectionMode": false,
        "emitResetOnStopRun": false,
        "ppqn": 4,
        "resetClockOutputsHigh": true
      },
      "pos": [
        0,
        0
      ]
    },
    {
      "id": 48,
      "plugin": "AudibleInstruments",
      "version": "1.0.0",
      "model": "Kinks",
      "params": [],
      "leftModuleId": 50,
      "rightModuleId": 49,
      "pos": [
        18,
        1
      ]
    },
    {
      "id": 49,
      "plugin": "ML_modules",
      "version": "1.0.2",
      "model": "Quantum",
      "params": [
        {
          "id": 0,
          "value": 0.0
        },
        {
          "id": 1,
          "value": 0.0
        },
        {
          "id": 2,
          "value": 0.0
        },
        {
          "id": 3,
          "value": 0.0
        },
        {
          "id": 4,
          "value": 0.0
        },
        {
          "id": 5,
          "value": 0.0
        },
        {
          "id": 6,
          "value": 0.0
        },
        {
          "id": 7,
          "value": 0.0
        },
        {
          "id": 8,
          "value": 0.0
        },
        {
          "id": 9,
          "value": 0.0
        },
        {
          "id": 10,
          "value": 0.0
        },
        {
          "id": 11,
          "value": 0.0
        }
      ],
      "leftModuleId": 48,
      "rightModuleId": 38,
      "data": {
        "scale": [
          1,
          0,
          0,
          1,
          0,
          1,
          0,
          1,
          0,
          0,
          1,
          0
        ],
        "mode": 1,
        "transpose_select": 1,
        "toggle_mode": 0
      },
      "pos": [
        22,
        1
      ]
    },
    {
      "id": 50,
      "plugin": "Core",
      "version": "1.1.3",
      "model": "MIDI-Map",
      "params": [],
      "leftModuleId": 5,
      "rightModuleId": 48,
      "data": {
        "maps": [
          {
            "cc": -1,
            "moduleId": -1,
            "paramId": 0
          }
        ],
        "midi": {
          "driver": 1,
          "channel": -1
        }
      },
      "pos": [
        8,
        1
      ]
    }
  ],
  "cables": [
    {
      "id": 104,
      "outputModuleId": 38,
      "outputId": 0,
      "inputModuleId": 39,
      "inputId": 0,
      "color": "#0986ad"
    },
    {
      "id": 105,
      "outputModuleId": 38,
      "outputId": 1,
      "inputModuleId": 39,
      "inputId": 1,
      "color": "#c9b70e"
    },
    {
      "id": 106,
      "outputModuleId": 39,
      "outputId": 0,
      "inputModuleId": 1,
      "inputId": 0,
      "color": "#0c8e15"
    },
    {
      "id": 107,
      "outputModuleId": 39,
      "outputId": 1,
      "inputModuleId": 1,
      "inputId": 1,
      "color": "#c91847"
    },
    {
      "id": 109,
      "outputModuleId": 42,
      "outputId": 1,
      "inputModuleId": 37,
      "inputId": 4,
      "color": "#c9b70e"
    },
    {
      "id": 110,
      "outputModuleId": 35,
      "outputId": 0,
      "inputModuleId": 43,
      "inputId": 0,
      "color": "#0c8e15"
    },
    {
      "id": 111,
      "outputModuleId": 43,
      "outputId": 0,
      "inputModuleId": 45,
      "inputId": 0,
      "color": "#c91847"
    },
    {
      "id": 112,
      "outputModuleId": 45,
      "outputId": 0,
      "inputModuleId": 36,
      "inputId": 4,
      "color": "#0986ad"
    },
    {
      "id": 113,
      "outputModuleId": 45,
      "outputId": 1,
      "inputModuleId": 42,
      "inputId": 1,
      "color": "#c9b70e"
    },
    {
      "id": 114,
      "outputModuleId": 45,
      "outputId": 2,
      "inputModuleId": 40,
      "inputId": 0,
      "color": "#0c8e15"
    },
    {
      "id": 115,
      "outputModuleId": 45,
      "outputId": 3,
      "inputModuleId": 36,
      "inputId": 2,
      "color": "#c91847"
    },
    {
      "id": 116,
      "outputModuleId": 45,
      "outputId": 4,
      "inputModuleId": 37,
      "inputId": 2,
      "color": "#0986ad"
    },
    {
      "id": 117,
      "outputModuleId": 45,
      "outputId": 5,
      "inputModuleId": 40,
      "inputId": 2,
      "color": "#c9b70e"
    },
    {
      "id": 118,
      "outputModuleId": 43,
      "outputId": 2,
      "inputModuleId": 46,
      "inputId": 0,
      "color": "#0c8e15"
    },
    {
      "id": 119,
      "outputModuleId": 46,
      "outputId": 0,
      "inputModuleId": 36,
      "inputId": 5,
      "color": "#c91847"
    },
    {
      "id": 120,
      "outputModuleId": 46,
      "outputId": 1,
      "inputModuleId": 37,
      "inputId": 5,
      "color": "#0986ad"
    },
    {
      "id": 121,
      "outputModuleId": 46,
      "outputId": 2,
      "inputModuleId": 41,
      "inputId": 0,
      "color": "#c9b70e"
    },
    {
      "id": 122,
      "outputModuleId": 47,
      "outputId": 1,
      "inputModuleId": 35,
      "inputId": 1,
      "color": "#0c8e15"
    },
    {
      "id": 123,
      "outputModuleId": 36,
      "outputId": 0,
      "inputModuleId": 38,
      "inputId": 2,
      "color": "#c91847"
    },
    {
      "id": 124,
      "outputModuleId": 37,
      "outputId": 0,
      "inputModuleId": 38,
      "inputId": 5,
      "color": "#0986ad"
    },
    {
      "id": 126,
      "outputModuleId": 40,
      "outputId": 0,
      "inputModuleId": 41,
      "inputId": 5,
      "color": "#0c8e15"
    },
    {
      "id": 127,
      "outputModuleId": 41,
      "outputId": 0,
      "inputModuleId": 38,
      "inputId": 8,
      "color": "#c91847"
    },
    {
      "id": 128,
      "outputModuleId": 47,
      "outputId": 0,
      "inputModuleId": 48,
      "inputId": 4,
      "color": "#0986ad"
    },
    {
      "id": 129,
      "outputModuleId": 48,
      "outputId": 6,
      "inputModuleId": 49,
      "inputId": 0,
      "color": "#c9b70e"
    },
    {
      "id": 130,
      "outputModuleId": 49,
      "outputId": 0,
      "inputModuleId": 43,
      "inputId": 2,
      "color": "#0986ad"
    },
    {
      "id": 131,
      "outputModuleId": 49,
      "outputId": 1,
      "inputModuleId": 43,
      "inputId": 3,
      "color": "#c9b70e"
    }
  ]
}